# xmcd CD database file generated by MAGIX-FreeDB- v3.0beta1
#
# Track frame offsets:
#	182
#	69940
#	76102
#	86145
#	98212
#	106750
#	114060
#	124687
#	142540
#	152435
#	171190
#	183180
#	200660
#	220965
#	250915
#
# Disc length: 3604
#
# Revision: 1
# Processed by: cddbd v1.5.2PL0 Copyright (c) Steve Scherf et al.
# Submitted via: MAGIX-FreeDB- v3.0beta1
#
DISCID=b50e120f
DTITLE=Bizet, Ravel - Master Classics - Ravel and Bizet
DYEAR=1995
DGENRE=Classical
TTITLE0=Ravel - Bolero
TTITLE1=Carmen Suite No.1 - Prelude
TTITLE2=Carmen Suite No.1 - Aragonaise
TTITLE3=Carmen Suite No.1 - Intermezzo
TTITLE4=Carmen Suite No.1 - Seguedille
TTITLE5=Carmen Suite No.1 - Les Dragons d'Alcala
TTITLE6=Carmen Suite No.1 - Les Toreadors
TTITLE7=Carmen Suite No.2 - Marche Des Contrabandiers
TTITLE8=Carmen Suite No.2 - Habanera
TTITLE9=Carmen Suite No.2 - Nocturne
TTITLE10=Carmen Suite No.2 - Chanson du Toreador
TTITLE11=Carmen Suite No.2 - La Garde Monante
TTITLE12=Carmen Suite No.2 - Danse Bohemienne
TTITLE13=L'Arlesienne - Ouverture
TTITLE14=L'Arlesienne - Carillon
EXTD=RPMCD-MCL6
EXTT0=Maurice Ravel
EXTT1=Georges Bizet
EXTT2=Georges Bizet
EXTT3=Georges Bizet
EXTT4=Georges Bizet
EXTT5=Georges Bizet
EXTT6=Georges Bizet
EXTT7=Georges Bizet
EXTT8=Georges Bizet
EXTT9=Georges Bizet
EXTT10=Georges Bizet
EXTT11=Georges Bizet
EXTT12=Georges Bizet
EXTT13=Georges Bizet
EXTT14=Georges Bizet
PLAYORDER=
